<svg xmlns="http://www.w3.org/2000/svg" xmlns:xlink="http://www.w3.org/1999/xlink" width="4846" zoomAndPan="magnify" viewBox="0 0 3634.5 2595.749923" height="3461" preserveAspectRatio="xMidYMid meet" version="1.0"><defs><clipPath id="e2dacec79f"><path d="M 0 0.0546875 L 3634 0.0546875 L 3634 2595.445312 L 0 2595.445312 Z M 0 0.0546875 " clip-rule="nonzero"/></clipPath><clipPath id="9df45f2ccf"><path d="M 1429 626 L 1997 626 L 1997 1969 L 1429 1969 Z M 1429 626 " clip-rule="nonzero"/></clipPath><clipPath id="ef6eeeaa44"><path d="M 1032.457031 1023.25 L 1987.515625 617.03125 L 2393.734375 1572.085938 L 1438.675781 1978.308594 Z M 1032.457031 1023.25 " clip-rule="nonzero"/></clipPath><clipPath id="c02ebabe3b"><path d="M 1032.457031 1023.25 L 1987.515625 617.03125 L 2393.734375 1572.085938 L 1438.675781 1978.308594 Z M 1032.457031 1023.25 " clip-rule="nonzero"/></clipPath><clipPath id="6dc8ef0c31"><path d="M 1032.457031 1023.25 L 1987.515625 617.03125 L 2393.734375 1572.085938 L 1438.675781 1978.308594 Z M 1032.457031 1023.25 " clip-rule="nonzero"/></clipPath></defs><g clip-path="url(#e2dacec79f)"><path fill="#ffffff" d="M 0 0.0546875 L 3634 0.0546875 L 3634 2595.445312 L 0 2595.445312 Z M 0 0.0546875 " fill-opacity="1" fill-rule="nonzero"/><path fill="#1b598e" d="M 0 0.0546875 L 3634 0.0546875 L 3634 2595.445312 L 0 2595.445312 Z M 0 0.0546875 " fill-opacity="1" fill-rule="nonzero"/></g><path fill="#283593" d="M 993.46875 730.015625 C 1010.175781 720.644531 1030.742188 720.644531 1047.425781 730.015625 C 1129.96875 776.328125 1378.359375 915.722656 1460.929688 962.035156 C 1477.636719 971.378906 1487.917969 988.695312 1487.917969 1007.433594 C 1487.917969 1100.054688 1487.917969 1378.824219 1487.917969 1471.445312 C 1487.917969 1490.183594 1477.636719 1507.5 1460.929688 1516.871094 C 1378.386719 1563.179688 1129.992188 1702.578125 1047.425781 1748.886719 C 1030.71875 1758.257812 1010.148438 1758.257812 993.46875 1748.886719 C 910.925781 1702.578125 662.53125 1563.179688 579.964844 1516.871094 C 563.28125 1507.5 553 1490.210938 553 1471.46875 C 553 1378.847656 553 1100.078125 553 1007.457031 C 553 988.71875 563.28125 971.402344 579.988281 962.035156 C 662.507812 915.722656 910.949219 776.328125 993.46875 730.015625 Z M 993.46875 730.015625 " fill-opacity="1" fill-rule="evenodd"/><path fill="#5c6bc0" d="M 560.476562 1495.324219 C 553.933594 1486.570312 553 1478.257812 553 1467.066406 C 553 1374.988281 553 1097.816406 553 1005.710938 C 553 987.070312 563.257812 969.855469 579.914062 960.558594 C 662.164062 914.519531 909.71875 775.933594 991.96875 729.867188 C 1008.625 720.546875 1031.1875 720.746094 1047.84375 730.066406 C 1130.089844 776.105469 1376.8125 913.511719 1459.058594 959.550781 C 1465.703125 963.289062 1470.769531 967.789062 1475.296875 973.714844 Z M 560.476562 1495.324219 " fill-opacity="1" fill-rule="evenodd"/><path fill="#ffffff" d="M 1020.457031 895.140625 C 1210.566406 895.140625 1364.902344 1049.414062 1364.902344 1239.453125 C 1364.902344 1429.488281 1210.566406 1583.765625 1020.457031 1583.765625 C 830.351562 1583.765625 676.015625 1429.488281 676.015625 1239.453125 C 676.015625 1049.414062 830.351562 895.140625 1020.457031 895.140625 Z M 1020.457031 1067.296875 C 1115.5 1067.296875 1192.679688 1144.421875 1192.679688 1239.453125 C 1192.679688 1334.457031 1115.5 1411.609375 1020.457031 1411.609375 C 925.417969 1411.609375 848.238281 1334.457031 848.238281 1239.453125 C 848.238281 1144.421875 925.390625 1067.296875 1020.457031 1067.296875 Z M 1020.457031 1067.296875 " fill-opacity="1" fill-rule="evenodd"/><path fill="#3949ab" d="M 1475.25 973.960938 C 1487.945312 985.839844 1487.699219 1003.746094 1487.699219 1017.835938 C 1487.699219 1111.171875 1486.910156 1376.636719 1487.917969 1469.96875 C 1488.015625 1479.707031 1484.792969 1489.964844 1479.972656 1497.6875 L 1010.445312 1239.453125 Z M 1475.25 973.960938 " fill-opacity="1" fill-rule="evenodd"/><path fill="#5c8dbc" d="M 2976.089844 1027.910156 C 2976.089844 1010.628906 2972.371094 995.359375 2964.890625 982.253906 C 2957.558594 969.367188 2946.574219 958.566406 2931.835938 950.027344 C 2810.085938 879.839844 2688.261719 809.867188 2566.546875 739.605469 C 2533.742188 720.667969 2501.933594 721.355469 2469.378906 740.566406 C 2420.933594 769.140625 2178.328125 908.121094 2106.023438 949.988281 C 2076.269531 967.222656 2061.785156 993.597656 2061.777344 1027.875 C 2061.730469 1169.042969 2061.777344 1310.179688 2061.730469 1451.355469 C 2061.738281 1468.242188 2065.277344 1483.195312 2072.421875 1496.109375 C 2079.765625 1509.382812 2090.914062 1520.511719 2106.003906 1529.238281 C 2178.292969 1571.097656 2420.898438 1710.050781 2469.355469 1738.636719 C 2501.949219 1757.882812 2533.753906 1758.5625 2566.5625 1739.601562 C 2688.277344 1669.335938 2810.132812 1599.359375 2931.882812 1529.203125 C 2946.980469 1520.472656 2958.109375 1509.347656 2965.480469 1496.074219 C 2972.597656 1483.195312 2976.140625 1468.207031 2976.140625 1451.285156 C 2976.140625 1451.285156 2976.140625 1169.085938 2976.105469 1027.914062 " fill-opacity="1" fill-rule="nonzero"/><path fill="#1a4674" d="M 2520.324219 1238.234375 L 2072.429688 1496.109375 C 2079.765625 1509.378906 2090.914062 1520.507812 2106.003906 1529.234375 C 2178.292969 1571.09375 2420.898438 1710.046875 2469.355469 1738.632812 C 2501.949219 1757.878906 2533.753906 1758.558594 2566.5625 1739.597656 C 2688.277344 1669.335938 2810.132812 1599.355469 2931.882812 1529.199219 C 2946.980469 1520.472656 2958.109375 1509.34375 2965.480469 1496.070312 L 2520.339844 1238.234375 " fill-opacity="1" fill-rule="nonzero"/><path fill="#1a4674" d="M 2387.664062 1314.617188 C 2413.730469 1360.125 2462.722656 1390.820312 2518.929688 1390.820312 C 2575.492188 1390.820312 2624.757812 1359.730469 2650.695312 1313.757812 L 2520.324219 1238.234375 L 2387.664062 1314.617188 " fill-opacity="1" fill-rule="nonzero"/><path fill="#1b598e" d="M 2976.089844 1027.910156 C 2976.089844 1010.628906 2972.371094 995.359375 2964.890625 982.253906 L 2520.324219 1238.234375 L 2965.464844 1496.070312 C 2972.585938 1483.191406 2976.125 1468.203125 2976.125 1451.28125 C 2976.125 1451.28125 2976.125 1169.082031 2976.089844 1027.910156 " fill-opacity="1" fill-rule="nonzero"/><path fill="#ffffff" d="M 2951.617188 1256.660156 L 2916.84375 1256.660156 L 2916.84375 1291.433594 L 2882.03125 1291.433594 L 2882.03125 1256.660156 L 2847.257812 1256.660156 L 2847.257812 1221.886719 L 2882.03125 1221.886719 L 2882.03125 1187.113281 L 2916.84375 1187.113281 L 2916.84375 1221.886719 L 2951.617188 1221.886719 L 2951.617188 1256.660156 " fill-opacity="1" fill-rule="nonzero"/><path fill="#ffffff" d="M 2824.679688 1256.660156 L 2789.90625 1256.660156 L 2789.90625 1291.433594 L 2755.128906 1291.433594 L 2755.128906 1256.660156 L 2720.355469 1256.660156 L 2720.355469 1221.886719 L 2755.128906 1221.886719 L 2755.128906 1187.113281 L 2789.90625 1187.113281 L 2789.90625 1221.886719 L 2824.679688 1221.886719 L 2824.679688 1256.660156 " fill-opacity="1" fill-rule="nonzero"/><path fill="#ffffff" d="M 2650.695312 1313.757812 C 2624.757812 1359.730469 2575.492188 1390.820312 2518.929688 1390.820312 C 2462.722656 1390.820312 2413.730469 1360.125 2387.664062 1314.617188 C 2375.003906 1292.507812 2367.722656 1266.925781 2367.722656 1239.59375 C 2367.722656 1156.09375 2435.425781 1088.40625 2518.929688 1088.40625 C 2574.777344 1088.40625 2623.503906 1118.707031 2649.695312 1163.75 L 2781.855469 1087.65625 C 2729.335938 996.964844 2631.269531 935.960938 2518.929688 935.960938 C 2351.222656 935.960938 2215.273438 1071.910156 2215.273438 1239.59375 C 2215.273438 1294.617188 2229.910156 1346.207031 2255.492188 1390.710938 C 2307.890625 1481.867188 2406.246094 1543.261719 2518.929688 1543.261719 C 2631.84375 1543.261719 2730.335938 1481.617188 2782.644531 1390.210938 L 2650.695312 1313.757812 " fill-opacity="1" fill-rule="nonzero"/><g clip-path="url(#9df45f2ccf)"><g clip-path="url(#ef6eeeaa44)"><g clip-path="url(#c02ebabe3b)"><g clip-path="url(#6dc8ef0c31)"><path stroke-linecap="round" transform="matrix(20.672218, -8.79264, 8.79264, 20.672218, 976.474081, 1000.679589)" fill="none" stroke-linejoin="round" d="M 46.999975 2.999952 L 3.000077 46.999966 " stroke="#000000" stroke-width="2" stroke-opacity="1" stroke-miterlimit="2.613"/></g></g></g></g></svg>